<?xml version="1.0" encoding="UTF-8"?>
<svg width="58px" height="69px" viewBox="0 0 58 69" version="1.1" xmlns="http://www.w3.org/2000/svg" xmlns:xlink="http://www.w3.org/1999/xlink">
    <!-- Generator: Sketch 44.1 (41455) - http://www.bohemiancoding.com/sketch -->
    <title>1aefbabd3c9212474f8f82ac8d063f copy</title>
    <desc>Created with Sketch.</desc>
    <defs></defs>
    <g id="Page-1" stroke="none" stroke-width="1" fill="none" fill-rule="evenodd">
        <g id="rodaq.com-v3" transform="translate(-200.000000, -92.000000)" fill-rule="nonzero" fill="#003DFF">
            <g id="1aefbabd3c9212474f8f82ac8d063f-copy" transform="translate(200.000000, 92.000000)">
                <path d="M45.6656453,51.0649287 C48.6641578,56.3459416 51.6615425,61.6280896 54.6589272,66.9102376 C54.9470083,67.3412545 54.7277607,67.8723288 54.7252113,68.3469605 C48.5046991,68.3623539 42.2841869,68.3392637 36.0636746,68.3597884 C34.4848559,65.3832949 28.5359315,54.1238325 18.2169013,34.5814011 C21.4558792,34.5808326 24.338712,34.5799404 26.0521298,34.5790483 C29.0943012,34.5290075 32.3121176,34.1314748 34.9224786,32.4572184 L45.6656453,51.0649287 Z M50.2822042,38.7610441 L38.8317223,18.9282277 C38.6212569,18.4543021 38.364142,18.0031846 38.0562633,17.5850932 L38.0522912,17.5782134 L38.0479286,17.5737997 C37.8033259,17.2430921 37.5268478,16.9331648 37.2164494,16.6490966 C35.0533148,14.6146923 31.9562149,14.1246907 29.1085118,14.0836435 C24.8817846,14.0684801 13.7631682,14.0752657 7.39133687,14.077745 C5.06681967,9.67477167 2.60304071,5.00784578 0,0.0769672978 C0.382408539,0.0256557659 0.769915859,0 1.15487379,0 C11.5257934,0.0153934596 21.8967129,-0.00769672978 32.2676325,0.0102623064 C38.2841935,0.0667049915 44.5862863,1.16477177 49.5703442,4.76171016 C53.2516638,7.34781137 55.8392949,11.3962912 56.7111863,15.8244764 C57.7742821,21.2532365 57.0808479,27.0155215 54.8501314,32.0645763 C53.7153442,34.5393602 52.1521267,36.7962674 50.2822042,38.7610441 Z" id="Combined-Shape"></path>
            </g>
        </g>
    </g>
</svg>